<svg role="img" viewbox= "0 0 24 24" xmlns="http://www.w3.org/2000/svg"><title>Pronouns.page</title><path d="M14.991 4.601c.058-.11.01-.2-.108-.2l-2.051.002a.408.408 0 0 0-.321.198l-5.027 9.172c-.702 1.246-1.681 1.522-2.622 1.399-1.615-.211-2.483-1.49-2.483-3.193 0-1.71 1.29-3.102 2.876-3.102h3.192c.117 0 .26-.09.319-.2l1.15-2.166c.058-.11.01-.2-.107-.2H5.254C2.357 6.311 0 8.854 0 11.98c0 1.51.547 3.139 1.542 4.203.98 1.049 2.29 1.433 3.688 1.464.789.01 2.956-.01 3.972-1.96 1.138-2.184 5.79-11.085 5.79-11.085Zm7.467 3.218c-.98-1.049-2.29-1.433-3.688-1.464-.789-.01-2.956.01-3.972 1.96-1.138 2.183-5.79 11.084-5.79 11.084-.057.11-.008.2.109.2l2.051-.002c.118 0 .262-.089.321-.197l5.027-9.173c.702-1.246 1.681-1.522 2.622-1.399 1.615.212 2.483 1.49 2.483 3.193 0 1.71-1.29 3.102-2.876 3.102h-3.192c-.117 0-.26.09-.319.2l-1.15 2.167c-.058.11-.01.199.107.199h4.555c2.897 0 5.254-2.542 5.254-5.668 0-1.509-.547-3.138-1.542-4.202Z" style="stroke-width:.044208"/></svg>